<svg width="32" height="32" viewBox="0 0 32 32" fill="none" xmlns="http://www.w3.org/2000/svg">
<path d="M28 16C28.1078 15.5069 28.308 15.0387 28.59 14.62C28.9103 14.2062 29.1406 13.73 29.2663 13.222C29.392 12.7141 29.4103 12.1854 29.32 11.67C29.0862 11.1881 28.7534 10.7608 28.3433 10.4162C27.9332 10.0716 27.455 9.81733 26.94 9.67C26.4952 9.51744 26.0794 9.29092 25.71 9C25.5208 8.54957 25.4158 8.06829 25.4 7.58C25.4168 7.04785 25.3213 6.51812 25.1197 6.02535C24.9181 5.53257 24.615 5.08779 24.23 4.72C23.7643 4.46968 23.2509 4.32067 22.7235 4.28276C22.1962 4.24484 21.6667 4.31888 21.17 4.5C20.6965 4.63818 20.2005 4.68234 19.71 4.63C19.3208 4.38606 18.9815 4.07047 18.71 3.7C18.4066 3.23894 18.0075 2.84851 17.5399 2.5552C17.0724 2.26189 16.5472 2.07254 16 2C15.464 2.07208 14.9493 2.25627 14.4892 2.54056C14.0292 2.82485 13.6342 3.20288 13.33 3.65C13.0585 4.02047 12.7192 4.33606 12.33 4.58C11.8395 4.63234 11.3435 4.58818 10.87 4.45C10.3733 4.26888 9.84384 4.19484 9.31648 4.23276C8.78911 4.27067 8.27572 4.41968 7.81 4.67C7.41779 5.03424 7.10719 5.47743 6.89863 5.97038C6.69007 6.46333 6.5883 6.99487 6.6 7.53C6.59044 8.03518 6.48525 8.53398 6.29 9C5.92424 9.30864 5.5082 9.55218 5.06 9.72C4.54499 9.86733 4.06683 10.1216 3.65674 10.4662C3.24664 10.8108 2.91382 11.2381 2.68 11.72C2.5897 12.2354 2.60799 12.7641 2.73369 13.272C2.85939 13.78 3.08974 14.2562 3.41 14.67C3.68632 15.0735 3.8863 15.5243 4 16C3.89217 16.4931 3.69198 16.9613 3.41 17.38C3.08974 17.7938 2.85939 18.27 2.73369 18.778C2.60799 19.2859 2.5897 19.8146 2.68 20.33C2.91382 20.8119 3.24664 21.2392 3.65674 21.5838C4.06683 21.9284 4.54499 22.1827 5.06 22.33C5.5082 22.4978 5.92424 22.7414 6.29 23.05C6.47919 23.5004 6.58425 23.9817 6.6 24.47C6.5832 25.0022 6.6787 25.5319 6.88029 26.0247C7.08188 26.5174 7.38504 26.9622 7.77 27.33C8.23572 27.5803 8.74911 27.7293 9.27648 27.7672C9.80384 27.8052 10.3333 27.7311 10.83 27.55C11.3035 27.4118 11.7995 27.3677 12.29 27.42C12.6792 27.6639 13.0185 27.9795 13.29 28.35C13.5985 28.8018 13.9998 29.1826 14.4671 29.4671C14.9344 29.7517 15.457 29.9333 16 30C16.536 29.9279 17.0507 29.7437 17.5108 29.4594C17.9708 29.1751 18.3658 28.7971 18.67 28.35C18.9415 27.9795 19.2808 27.6639 19.67 27.42C20.1605 27.3677 20.6565 27.4118 21.13 27.55C21.6267 27.7311 22.1562 27.8052 22.6835 27.7672C23.2109 27.7293 23.7243 27.5803 24.19 27.33C24.575 26.9622 24.8781 26.5174 25.0797 26.0247C25.2813 25.5319 25.3768 25.0022 25.36 24.47C25.3758 23.9817 25.4808 23.5004 25.67 23.05C26.0358 22.7414 26.4518 22.4978 26.9 22.33C27.415 22.1827 27.8932 21.9284 28.3033 21.5838C28.7134 21.2392 29.0462 20.8119 29.28 20.33C29.3703 19.8146 29.352 19.2859 29.2263 18.778C29.1006 18.27 28.8703 17.7938 28.55 17.38C28.2821 16.9584 28.0956 16.4903 28 16ZM26.85 18.36C27.07 18.76 27.49 19.49 27.42 19.71C27.35 19.93 26.6 20.29 26.12 20.51C25.3487 20.7912 24.6608 21.2624 24.12 21.88C23.6912 22.5938 23.4568 23.4075 23.44 24.24C23.38 24.74 23.29 25.56 23.08 25.71C22.87 25.86 22.08 25.71 21.6 25.59C20.7932 25.3554 19.9403 25.3279 19.12 25.51C18.3587 25.8315 17.6937 26.3448 17.19 27C16.83 27.4 16.28 28 16 28C15.72 28 15.17 27.4 14.81 27C14.3146 26.3489 13.6604 25.8359 12.91 25.51C12.618 25.4228 12.3148 25.379 12.01 25.38C11.4779 25.4001 10.9489 25.4704 10.43 25.59C9.95 25.69 9.14 25.85 8.95 25.71C8.76 25.57 8.65 24.71 8.59 24.24C8.57322 23.4075 8.33878 22.5938 7.91 21.88C7.36918 21.2624 6.68129 20.7912 5.91 20.51C5.43 20.29 4.7 19.96 4.61 19.71C4.52 19.46 4.96 18.76 5.18 18.36C5.64864 17.6554 5.93078 16.8434 6 16C5.92181 15.1539 5.62927 14.3417 5.15 13.64C4.93 13.24 4.51 12.51 4.58 12.29C4.65 12.07 5.4 11.71 5.88 11.49C6.65129 11.2088 7.33918 10.7376 7.88 10.12C8.30878 9.40617 8.54322 8.59254 8.56 7.76C8.62 7.26 8.71 6.44 8.92 6.29C9.13 6.14 9.92 6.29 10.4 6.41C11.2068 6.64462 12.0597 6.67213 12.88 6.49C13.6413 6.16852 14.3063 5.65515 14.81 5C15.17 4.6 15.72 4 16 4C16.28 4 16.83 4.6 17.19 5C17.6854 5.65108 18.3396 6.16411 19.09 6.49C19.9103 6.67213 20.7632 6.64462 21.57 6.41C22.0482 6.26013 22.5539 6.21913 23.05 6.29C23.26 6.44 23.35 7.29 23.41 7.76C23.4268 8.59254 23.6612 9.40617 24.09 10.12C24.6308 10.7376 25.3187 11.2088 26.09 11.49C26.57 11.71 27.3 12.04 27.39 12.29C27.48 12.54 27.04 13.29 26.82 13.64C26.3514 14.3446 26.0692 15.1566 26 16C26.0782 16.8461 26.3707 17.6583 26.85 18.36Z" fill="#333333"/>
<path d="M19.79 12.2899L14.5 17.5899L12.71 15.7899C12.6168 15.6967 12.5061 15.6227 12.3843 15.5723C12.2624 15.5218 12.1319 15.4958 12 15.4958C11.8681 15.4958 11.7376 15.5218 11.6158 15.5723C11.4939 15.6227 11.3832 15.6967 11.29 15.7899C11.1968 15.8832 11.1228 15.9939 11.0723 16.1157C11.0219 16.2375 10.9959 16.3681 10.9959 16.4999C10.9959 16.6318 11.0219 16.7624 11.0723 16.8842C11.1228 17.006 11.1968 17.1167 11.29 17.2099L13.79 19.7099C13.883 19.8037 13.9936 19.8781 14.1154 19.9288C14.2373 19.9796 14.368 20.0057 14.5 20.0057C14.632 20.0057 14.7627 19.9796 14.8846 19.9288C15.0064 19.8781 15.117 19.8037 15.21 19.7099L21.21 13.7099C21.3032 13.6167 21.3772 13.506 21.4277 13.3842C21.4781 13.2624 21.5041 13.1318 21.5041 12.9999C21.5041 12.8681 21.4781 12.7375 21.4277 12.6157C21.3772 12.4939 21.3032 12.3832 21.21 12.2899C21.1168 12.1967 21.0061 12.1227 20.8843 12.0723C20.7624 12.0218 20.6319 11.9958 20.5 11.9958C20.3681 11.9958 20.2376 12.0218 20.1158 12.0723C19.9939 12.1227 19.8832 12.1967 19.79 12.2899Z" fill="#333333"/>
</svg>
