<svg width="34" height="34" viewBox="0 0 34 34" fill="none" xmlns="http://www.w3.org/2000/svg">
<rect x="6" y="2" width="22" height="22" rx="11" fill="white"/>
<rect x="6" y="2" width="22" height="22" rx="11" stroke="#3D6285" stroke-width="2"/>
<g filter="url(#filter0_dd_417_2053)">
<rect x="5" y="1" width="24" height="24" rx="12" fill="white" fill-opacity="0.01" shape-rendering="crispEdges"/>
</g>
<path d="M14.0833 18.8332V17.3748L15.8333 16.1498V14.0498L11.1667 15.9165V14.1665L15.8333 10.8998V8.33317C15.8333 8.01234 15.9476 7.73768 16.176 7.50921C16.4045 7.28074 16.6792 7.1665 17 7.1665C17.3208 7.1665 17.5955 7.28074 17.824 7.50921C18.0524 7.73768 18.1667 8.01234 18.1667 8.33317V10.8998L22.8333 14.1665V15.9165L18.1667 14.0498V16.1498L19.9167 17.3748V18.8332L17 17.9582L14.0833 18.8332Z" fill="#3D6285"/>
<defs>
<filter id="filter0_dd_417_2053" x="0" y="0" width="34" height="34" filterUnits="userSpaceOnUse" color-interpolation-filters="sRGB">
<feFlood flood-opacity="0" result="BackgroundImageFix"/>
<feColorMatrix in="SourceAlpha" type="matrix" values="0 0 0 0 0 0 0 0 0 0 0 0 0 0 0 0 0 0 127 0" result="hardAlpha"/>
<feMorphology radius="2" operator="erode" in="SourceAlpha" result="effect1_dropShadow_417_2053"/>
<feOffset dy="2"/>
<feGaussianBlur stdDeviation="2"/>
<feComposite in2="hardAlpha" operator="out"/>
<feColorMatrix type="matrix" values="0 0 0 0 0 0 0 0 0 0 0 0 0 0 0 0 0 0 0.1 0"/>
<feBlend mode="normal" in2="BackgroundImageFix" result="effect1_dropShadow_417_2053"/>
<feColorMatrix in="SourceAlpha" type="matrix" values="0 0 0 0 0 0 0 0 0 0 0 0 0 0 0 0 0 0 127 0" result="hardAlpha"/>
<feMorphology radius="1" operator="erode" in="SourceAlpha" result="effect2_dropShadow_417_2053"/>
<feOffset dy="4"/>
<feGaussianBlur stdDeviation="3"/>
<feComposite in2="hardAlpha" operator="out"/>
<feColorMatrix type="matrix" values="0 0 0 0 0 0 0 0 0 0 0 0 0 0 0 0 0 0 0.1 0"/>
<feBlend mode="normal" in2="effect1_dropShadow_417_2053" result="effect2_dropShadow_417_2053"/>
<feBlend mode="normal" in="SourceGraphic" in2="effect2_dropShadow_417_2053" result="shape"/>
</filter>
</defs>
</svg>
