<svg width="32" height="32" viewBox="0 0 32 32" fill="none" xmlns="http://www.w3.org/2000/svg">
<rect width="32" height="32" rx="16" fill="none"/>
<path d="M16.85 24H14.8409C14.8409 24 14.9697 23.9167 15.2273 23.75C15.4848 23.5833 15.765 23.3967 16.0676 23.19C16.3703 22.9833 16.6504 22.7967 16.908 22.63C17.1655 22.4633 17.2943 22.38 17.2943 22.38C18.3375 22.3 19.3002 21.9733 20.1824 21.4C21.0646 20.8267 21.7633 20.06 22.2784 19.1C21.1708 18.9933 20.1212 18.7033 19.1295 18.23C18.1379 17.7567 17.2492 17.1133 16.4636 16.3C15.678 15.4867 15.0534 14.5667 14.5898 13.54C14.1261 12.5133 13.8492 11.4267 13.7591 10.28C12.7674 10.8533 11.9915 11.6433 11.4313 12.65C10.871 13.6567 10.5909 14.7467 10.5909 15.92C10.5909 15.9467 10.5909 15.9867 10.5909 16.04C10.5909 16.0933 10.5909 16.1333 10.5909 16.16C10.5909 16.16 10.5136 16.1967 10.3591 16.27C10.2045 16.3433 10.0339 16.42 9.84716 16.5C9.66042 16.58 9.48977 16.6567 9.33523 16.73C9.18068 16.8033 9.10341 16.84 9.10341 16.84C9.07765 16.6933 9.06155 16.54 9.05511 16.38C9.04867 16.22 9.04545 16.0667 9.04545 15.92C9.04545 13.9733 9.64432 12.2567 10.842 10.77C12.0398 9.28333 13.5659 8.36 15.4205 8C15.1886 9.32 15.2595 10.61 15.633 11.87C16.0064 13.13 16.6504 14.2333 17.5648 15.18C18.4792 16.1267 19.5449 16.7933 20.7619 17.18C21.979 17.5667 23.225 17.64 24.5 17.4C24.1652 19.32 23.2765 20.9 21.8341 22.14C20.3917 23.38 18.7303 24 16.85 24ZM11.3636 22.4H14.8409C15.1629 22.4 15.4366 22.2833 15.6619 22.05C15.8873 21.8167 16 21.5333 16 21.2C16 20.8667 15.8905 20.5833 15.6716 20.35C15.4527 20.1167 15.1886 20 14.8795 20H13.875L13.4886 19.04C13.3083 18.6 13.025 18.25 12.6386 17.99C12.2523 17.73 11.8273 17.6 11.3636 17.6C10.7197 17.6 10.1723 17.83 9.72159 18.29C9.27083 18.75 9.04545 19.32 9.04545 20C9.04545 20.6667 9.27083 21.2333 9.72159 21.7C10.1723 22.1667 10.7197 22.4 11.3636 22.4ZM11.3636 24C10.2947 24 9.38352 23.61 8.63011 22.83C7.8767 22.05 7.5 21.1067 7.5 20C7.5 18.8933 7.8767 17.95 8.63011 17.17C9.38352 16.39 10.2947 16 11.3636 16C12.1364 16 12.8415 16.2167 13.479 16.65C14.1165 17.0833 14.5898 17.6667 14.8989 18.4C15.633 18.4267 16.2576 18.71 16.7727 19.25C17.2879 19.79 17.5455 20.44 17.5455 21.2C17.5455 21.9733 17.2814 22.6333 16.7534 23.18C16.2254 23.7267 15.5879 24 14.8409 24H11.3636Z" fill="#0D3B66"/>
</svg>
