<svg width="32" height="32" viewBox="0 0 32 32" fill="none" xmlns="http://www.w3.org/2000/svg">
<path d="M14.2222 21.3333C12.4889 21.3333 11.0185 20.7296 9.81111 19.5222C8.6037 18.3148 8 16.8444 8 15.1111V9.77778C8 9.28889 8.17407 8.87037 8.52222 8.52222C8.87037 8.17407 9.28889 8 9.77778 8H20.8889C21.7481 8 22.4815 8.3037 23.0889 8.91111C23.6963 9.51852 24 10.2519 24 11.1111C24 11.9704 23.6963 12.7037 23.0889 13.3111C22.4815 13.9185 21.7481 14.2222 20.8889 14.2222H20.4444V15.1111C20.4444 16.8444 19.8407 18.3148 18.6333 19.5222C17.4259 20.7296 15.9556 21.3333 14.2222 21.3333ZM9.77778 12.4444H18.6667V9.77778H9.77778V12.4444ZM14.2222 19.5556C15.4519 19.5556 16.5 19.1222 17.3667 18.2556C18.2333 17.3889 18.6667 16.3407 18.6667 15.1111V14.2222H9.77778V15.1111C9.77778 16.3407 10.2111 17.3889 11.0778 18.2556C11.9444 19.1222 12.9926 19.5556 14.2222 19.5556ZM20.4444 12.4444H20.8889C21.2593 12.4444 21.5741 12.3148 21.8333 12.0556C22.0926 11.7963 22.2222 11.4815 22.2222 11.1111C22.2222 10.7407 22.0926 10.4259 21.8333 10.1667C21.5741 9.90741 21.2593 9.77778 20.8889 9.77778H20.4444V12.4444ZM8 24V22.2222H22.2222V24H8Z" fill="#0D3B66"/>
</svg>
