<svg width="80" height="80" viewBox="0 0 80 80" fill="none" xmlns="http://www.w3.org/2000/svg">
<path d="M60.1029 0H20.1471C18.5174 0.00165387 16.955 0.528969 15.8027 1.46629C14.6503 2.40362 14.002 3.67443 14 5V75C14.002 76.3256 14.6503 77.5964 15.8027 78.5337C16.955 79.471 18.5174 79.9983 20.1471 80H60.1029C61.7326 79.9983 63.295 79.471 64.4473 78.5337C65.5997 77.5964 66.248 76.3256 66.25 75V5C66.248 3.67443 65.5997 2.40362 64.4473 1.46629C63.295 0.528969 61.7326 0.00165387 60.1029 0ZM63.1765 75C63.1755 75.6628 62.8513 76.2982 62.2751 76.7669C61.699 77.2355 60.9178 77.4992 60.1029 77.5H20.1471C19.3322 77.4992 18.551 77.2355 17.9749 76.7669C17.3987 76.2982 17.0745 75.6628 17.0735 75V5C17.0745 4.33721 17.3987 3.70181 17.9749 3.23315C18.551 2.76448 19.3322 2.50083 20.1471 2.5H60.1029C60.9178 2.50083 61.699 2.76448 62.2751 3.23315C62.8513 3.70181 63.1755 4.33721 63.1765 5V75Z" fill="#0D3B66"/>
<path d="M36.2832 7.5H43.967C44.3746 7.5 44.7655 7.3683 45.0537 7.13388C45.3419 6.89946 45.5038 6.58152 45.5038 6.25C45.5038 5.91848 45.3419 5.60054 45.0537 5.36612C44.7655 5.1317 44.3746 5 43.967 5H36.2832C35.8756 5 35.4847 5.1317 35.1965 5.36612C34.9083 5.60054 34.7464 5.91848 34.7464 6.25C34.7464 6.58152 34.9083 6.89946 35.1965 7.13388C35.4847 7.3683 35.8756 7.5 36.2832 7.5ZM30.1438 32.5156L28.9905 32.5113L29.6482 31.6131C29.7515 31.4721 29.8196 31.3159 29.8487 31.1534C29.8777 30.9909 29.8671 30.8254 29.8176 30.6663C29.768 30.5072 29.6803 30.3575 29.5596 30.2259C29.439 30.0943 29.2876 29.9834 29.1142 29.8994C28.9408 29.8154 28.7487 29.76 28.549 29.7363C28.3493 29.7127 28.1458 29.7213 27.9501 29.7616C27.7545 29.802 27.5705 29.8733 27.4088 29.9714C27.247 30.0696 27.1106 30.1927 27.0073 30.3337L26.3257 31.2644L25.6665 30.3206C25.5683 30.1756 25.4358 30.0478 25.2764 29.9448C25.1171 29.8417 24.9342 29.7655 24.7383 29.7204C24.5425 29.6753 24.3376 29.6624 24.1355 29.6822C23.9334 29.7021 23.7382 29.7545 23.5612 29.8362C23.3842 29.918 23.2289 30.0275 23.1044 30.1585C22.9799 30.2895 22.8886 30.4393 22.8358 30.5992C22.783 30.7591 22.7699 30.9259 22.797 31.09C22.8242 31.2541 22.8911 31.4121 22.994 31.555L23.6464 32.4894L22.46 32.4844C22.0524 32.4827 21.6607 32.6128 21.3711 32.8461C21.0814 33.0793 20.9176 33.3966 20.9155 33.7281C20.9135 34.0596 21.0735 34.3782 21.3602 34.6138C21.647 34.8494 22.0371 34.9827 22.4446 34.9844L23.598 34.9887L22.9402 35.8869C22.7317 36.1717 22.6707 36.5123 22.7709 36.8337C22.871 37.1551 23.1241 37.431 23.4743 37.6006C23.8245 37.7703 24.2432 37.8198 24.6383 37.7384C25.0334 37.6569 25.3726 37.4511 25.5812 37.1662L26.2627 36.2362L26.9212 37.18C27.1256 37.4657 27.4594 37.6748 27.8511 37.7625C28.2429 37.8503 28.6613 37.8097 29.0166 37.6494C29.1921 37.5683 29.3462 37.4599 29.4702 37.3303C29.5941 37.2008 29.6855 37.0527 29.7391 36.8944C29.7927 36.7361 29.8074 36.5708 29.7825 36.4079C29.7575 36.245 29.6934 36.0877 29.5937 35.945L28.9413 35.0106L30.1361 35.0156C30.5437 35.0165 30.935 34.8856 31.2239 34.6517C31.5128 34.4179 31.6757 34.1003 31.6767 33.7687C31.6778 33.4372 31.5168 33.119 31.2294 32.884C30.9419 32.6489 30.5514 32.5165 30.1438 32.5156ZM36.2755 34.9844L37.4289 34.9887L36.7711 35.8869C36.5625 36.1717 36.5016 36.5123 36.6018 36.8337C36.7019 37.1551 36.9549 37.431 37.3051 37.6006C37.6554 37.7703 38.0741 37.8198 38.4692 37.7384C38.8643 37.6569 39.2035 37.4511 39.412 37.1662L40.0936 36.2362L40.7521 37.18C40.9566 37.4655 41.2904 37.6746 41.6821 37.7623C42.0738 37.85 42.4921 37.8095 42.8475 37.6494C43.023 37.5683 43.1771 37.4599 43.3011 37.3303C43.425 37.2008 43.5164 37.0527 43.57 36.8944C43.6236 36.7361 43.6383 36.5708 43.6134 36.4079C43.5884 36.245 43.5242 36.0877 43.4245 35.945L42.7722 35.0106L43.967 35.0156C44.3746 35.0165 44.7659 34.8856 45.0548 34.6517C45.3437 34.4179 45.5066 34.1003 45.5076 33.7687C45.5086 33.4372 45.3477 33.119 45.0602 32.884C44.7728 32.6489 44.3823 32.5165 43.9747 32.5156L42.8214 32.5113L43.4791 31.6131C43.5824 31.4721 43.6505 31.3159 43.6795 31.1534C43.7086 30.9909 43.698 30.8254 43.6484 30.6663C43.5988 30.5072 43.5112 30.3575 43.3905 30.2259C43.2698 30.0943 43.1185 29.9834 42.9451 29.8994C42.7717 29.8154 42.5796 29.76 42.3799 29.7363C42.1802 29.7127 41.9767 29.7213 41.781 29.7616C41.5854 29.802 41.4014 29.8733 41.2396 29.9714C41.0779 30.0696 40.9414 30.1927 40.8382 30.3337L40.1566 31.2644L39.4973 30.3206C39.3992 30.1756 39.2666 30.0478 39.1073 29.9448C38.948 29.8417 38.7651 29.7655 38.5692 29.7204C38.3734 29.6753 38.1684 29.6624 37.9664 29.6822C37.7643 29.7021 37.5691 29.7545 37.3921 29.8362C37.2151 29.918 37.0598 30.0275 36.9353 30.1585C36.8108 30.2895 36.7195 30.4393 36.6667 30.5992C36.6139 30.7591 36.6007 30.9259 36.6279 31.09C36.6551 31.2541 36.722 31.4121 36.8249 31.555L37.4773 32.4894L36.2832 32.4844C36.0814 32.484 35.8814 32.5159 35.6948 32.5783C35.5082 32.6408 35.3385 32.7325 35.1954 32.8483C35.0524 32.9641 34.9387 33.1016 34.861 33.2531C34.7833 33.4046 34.7431 33.5671 34.7426 33.7313C34.7421 33.8954 34.7813 34.058 34.8581 34.2098C34.9349 34.3617 35.0476 34.4997 35.19 34.616C35.3323 34.7324 35.5015 34.8248 35.6877 34.888C35.874 34.9512 36.0737 34.984 36.2755 34.9844ZM57.8056 32.5156L56.6522 32.5113L57.31 31.6131C57.5186 31.3283 57.5795 30.9877 57.4793 30.6663C57.3792 30.3449 57.1262 30.069 56.776 29.8994C56.4257 29.7297 56.007 29.6802 55.6119 29.7616C55.2168 29.8431 54.8776 30.0489 54.669 30.3337L53.9875 31.2644L53.3282 30.3206C53.2301 30.1756 53.0975 30.0478 52.9382 29.9448C52.7789 29.8417 52.596 29.7655 52.4001 29.7204C52.2042 29.6753 51.9993 29.6624 51.7972 29.6822C51.5952 29.7021 51.4 29.7545 51.223 29.8362C51.046 29.918 50.8907 30.0275 50.7662 30.1585C50.6416 30.2895 50.5503 30.4393 50.4976 30.5992C50.4448 30.7591 50.4316 30.9259 50.4588 31.09C50.4859 31.2541 50.5529 31.4121 50.6558 31.555L51.3081 32.4894L50.1141 32.4844C49.7065 32.4835 49.3152 32.6144 49.0263 32.8483C48.7374 33.0821 48.5745 33.3997 48.5735 33.7313C48.5725 34.0628 48.7334 34.381 49.0209 34.616C49.3083 34.8511 49.6988 34.9835 50.1064 34.9844L51.2597 34.9887L50.602 35.8869C50.4987 36.0279 50.4306 36.1841 50.4016 36.3466C50.3725 36.5091 50.3831 36.6746 50.4327 36.8337C50.4822 36.9928 50.5699 37.1425 50.6906 37.2741C50.8113 37.4057 50.9626 37.5166 51.136 37.6006C51.3094 37.6846 51.5015 37.74 51.7012 37.7637C51.9009 37.7873 52.1044 37.7787 52.3001 37.7384C52.4957 37.698 52.6797 37.6267 52.8415 37.5286C53.0032 37.4304 53.1397 37.3073 53.2429 37.1662L53.9237 36.2362L54.583 37.18C54.7876 37.4654 55.1215 37.6743 55.5131 37.7621C55.9047 37.8498 56.323 37.8093 56.6784 37.6494C56.8538 37.5683 57.008 37.4599 57.1319 37.3303C57.2559 37.2008 57.3473 37.0527 57.4009 36.8944C57.4545 36.7361 57.4692 36.5708 57.4442 36.4079C57.4193 36.245 57.3551 36.0877 57.2554 35.945L56.6031 35.0106L57.7979 35.0156C58.2055 35.0165 58.5968 34.8856 58.8857 34.6517C59.1746 34.4179 59.3375 34.1003 59.3385 33.7687C59.3395 33.4372 59.1786 33.119 58.8911 32.884C58.6036 32.6489 58.2132 32.5165 57.8056 32.5156ZM39.9484 45H39.9468C38.6871 44.999 37.4558 45.3051 36.412 45.8789C35.3682 46.4526 34.5598 47.2676 34.091 48.2188C34.015 48.3708 33.9766 48.5336 33.978 48.6978C33.9793 48.8619 34.0204 49.0243 34.0989 49.1755C34.1774 49.3268 34.2917 49.4639 34.4354 49.5792C34.5791 49.6945 34.7492 49.7857 34.9362 49.8475C35.1232 49.9093 35.3233 49.9405 35.5251 49.9394C35.727 49.9383 35.9265 49.9049 36.1125 49.8411C36.2984 49.7772 36.4671 49.6842 36.6088 49.5674C36.7506 49.4505 36.8626 49.3121 36.9386 49.16C37.1787 48.6705 37.5936 48.2507 38.1298 47.9548C38.666 47.6589 39.2989 47.5005 39.9468 47.5C40.6778 47.5084 41.3854 47.7142 41.9569 48.085C42.5283 48.4558 42.932 48.9706 43.1045 49.5485C43.2769 50.1263 43.2083 50.7344 42.9095 51.2771C42.6107 51.8197 42.0985 52.2662 41.4536 52.5462C40.6286 52.8472 39.9232 53.3296 39.417 53.939C38.9108 54.5484 38.6238 55.2607 38.5883 55.9956V60C38.5883 60.3315 38.7502 60.6495 39.0384 60.8839C39.3266 61.1183 39.7175 61.25 40.1251 61.25C40.5327 61.25 40.9236 61.1183 41.2118 60.8839C41.5 60.6495 41.6619 60.3315 41.6619 60V55.9956C41.6619 55.3544 42.5225 54.9144 42.892 54.755C44.1429 54.2136 45.136 53.3484 45.7145 52.2963C46.2929 51.2442 46.4236 50.0653 46.0858 48.946C45.7481 47.8267 44.9612 46.831 43.8496 46.1163C42.738 45.4017 41.3652 45.0088 39.9484 45Z" fill="#0D3B66"/>
<path d="M40.1251 66.25C40.9739 66.25 41.6619 65.6904 41.6619 65C41.6619 64.3096 40.9739 63.75 40.1251 63.75C39.2764 63.75 38.5884 64.3096 38.5884 65C38.5884 65.6904 39.2764 66.25 40.1251 66.25Z" fill="#0D3B66"/>
</svg>
