<?xml version="1.0" standalone="no"?>
<!DOCTYPE svg PUBLIC "-//W3C//DTD SVG 20010904//EN"
 "http://www.w3.org/TR/2001/REC-SVG-20010904/DTD/svg10.dtd">
<svg version="1.0" xmlns="http://www.w3.org/2000/svg"
 width="100.000000pt" height="100.000000pt" viewBox="0 0 100.000000 100.000000"
 preserveAspectRatio="xMidYMid meet">

<g transform="translate(0.000000,100.000000) scale(0.100000,-0.100000)"
fill="#000000" stroke="none">
<path d="M773 918 c-11 -13 -63 -88 -115 -168 -52 -80 -105 -152 -119 -161
-13 -8 -109 -55 -213 -103 -104 -48 -218 -102 -254 -120 l-65 -33 44 -12 c43
-12 51 -10 339 88 162 54 316 107 341 116 l47 16 50 200 50 199 -42 0 c-31 0
-48 -6 -63 -22z"/>
<path d="M375 658 c-77 -83 -146 -159 -153 -169 -8 -12 15 -5 79 24 76 35 102
53 156 110 60 64 66 68 82 53 23 -21 24 -21 45 18 l18 34 -33 41 c-18 23 -37
41 -43 41 -6 0 -74 -69 -151 -152z"/>
<path d="M740 491 c-25 -10 -54 -21 -65 -25 -15 -6 6 -22 107 -82 124 -74 126
-75 159 -61 l34 14 -84 86 c-47 48 -89 87 -95 86 -6 0 -31 -8 -56 -18z"/>
<path d="M425 385 l-180 -62 0 -124 0 -124 107 -5 107 -5 3 100 3 100 60 0 60
0 3 -101 3 -100 100 3 c55 1 104 5 110 8 5 4 9 62 9 129 l0 123 -100 62 c-55
33 -101 60 -103 60 -1 -1 -83 -30 -182 -64z"/>
</g>
</svg>
