<svg width="20" height="20" viewBox="0 0 20 20" fill="none" xmlns="http://www.w3.org/2000/svg">
<path d="M2.57167 14.5909C2.64315 14.2662 2.61587 13.9275 2.49334 13.6184C1.64065 11.8492 1.44022 9.83568 1.92742 7.9331C2.41462 6.03052 3.55813 4.36115 5.15621 3.21952C6.75429 2.07789 8.70423 1.53737 10.662 1.69332C12.6198 1.84927 14.4595 2.69167 15.8567 4.0719C17.2539 5.45213 18.1187 7.28148 18.2986 9.23719C18.4784 11.1929 17.9618 13.1493 16.8398 14.7612C15.7177 16.3731 14.0625 17.5369 12.166 18.0473C10.2695 18.5577 8.25366 18.3819 6.47417 17.5509C6.18211 17.44 5.86477 17.4135 5.55834 17.4742L2.71417 18.3059C2.57697 18.3423 2.43275 18.3431 2.29517 18.3081C2.1576 18.2732 2.03123 18.2036 1.92806 18.1061C1.82489 18.0086 1.74834 17.8864 1.70565 17.751C1.66297 17.6156 1.65558 17.4716 1.68417 17.3326L2.57167 14.5909Z" stroke="#333333" stroke-width="1.25" stroke-linecap="round" stroke-linejoin="round"/>
</svg>
