<svg width="24" height="24" viewBox="0 0 24 24" fill="none" xmlns="http://www.w3.org/2000/svg">
<path d="M17.7062 19.2938L15.9062 11.0938L19.4062 7.59375C20.9062 6.09375 21.4062 4.09375 20.9062 3.09375C19.9062 2.59375 17.9062 3.09375 16.4062 4.59375L12.9062 8.09375L4.70625 6.29375C4.20625 6.19375 3.80625 6.39375 3.60625 6.79375L3.30625 7.29375C3.10625 7.79375 3.20625 8.29375 3.60625 8.59375L8.90625 12.0938L6.90625 15.0938H3.90625L2.90625 16.0938L5.90625 18.0938L7.90625 21.0938L8.90625 20.0938V17.0938L11.9062 15.0938L15.4062 20.3937C15.7063 20.7937 16.2062 20.8938 16.7062 20.6938L17.2062 20.4937C17.6062 20.1937 17.8062 19.7938 17.7062 19.2938Z" stroke="#545454" stroke-width="1.5" stroke-linecap="round" stroke-linejoin="round"/>
</svg>
