<svg width="80" height="80" viewBox="0 0 80 80" fill="none" xmlns="http://www.w3.org/2000/svg">
<path d="M47.1316 36.7605H62.5766C62.5766 49.2292 52.4688 59.3371 40 59.3371C27.5313 59.3371 17.4235 49.2292 17.4235 36.7605H32.8941" stroke="#333333" stroke-width="3" stroke-miterlimit="10" stroke-linecap="round" stroke-linejoin="round"/>
<path d="M14.375 18.2488C18.9828 18.2488 22.7181 14.5134 22.7181 9.90563C22.7181 5.29784 18.9828 1.5625 14.375 1.5625C9.7672 1.5625 6.03186 5.29784 6.03186 9.90563C6.03186 14.5134 9.7672 18.2488 14.375 18.2488Z" stroke="#333333" stroke-width="3" stroke-miterlimit="10" stroke-linecap="round" stroke-linejoin="round"/>
<path d="M1.5625 36.7507V24.069C1.5625 20.8546 4.16828 18.2487 7.38281 18.2487H21.3673C24.5817 18.2487 27.1877 20.8544 27.1877 24.069V36.2549" stroke="#333333" stroke-width="3" stroke-miterlimit="10" stroke-linecap="round" stroke-linejoin="round"/>
<path d="M40 18.2488C44.6078 18.2488 48.3431 14.5134 48.3431 9.90563C48.3431 5.29784 44.6078 1.5625 40 1.5625C35.3922 1.5625 31.6569 5.29784 31.6569 9.90563C31.6569 14.5134 35.3922 18.2488 40 18.2488Z" stroke="#333333" stroke-width="3" stroke-miterlimit="10" stroke-linecap="round" stroke-linejoin="round"/>
<path d="M27.1875 24.069C27.1875 20.8546 29.7933 18.2487 33.0078 18.2487H46.9923C50.2067 18.2487 52.8127 20.8544 52.8127 24.069V36.2549" stroke="#333333" stroke-width="3" stroke-miterlimit="10" stroke-linecap="round" stroke-linejoin="round"/>
<path d="M65.625 18.2488C70.2328 18.2488 73.9681 14.5134 73.9681 9.90563C73.9681 5.29784 70.2328 1.5625 65.625 1.5625C61.0172 1.5625 57.2819 5.29784 57.2819 9.90563C57.2819 14.5134 61.0172 18.2488 65.625 18.2488Z" stroke="#333333" stroke-width="3" stroke-miterlimit="10" stroke-linecap="round" stroke-linejoin="round"/>
<path d="M52.8125 24.069C52.8125 20.8546 55.4183 18.2487 58.6328 18.2487H72.6173C75.8317 18.2487 78.4377 20.8544 78.4377 24.069V36.7507M17.4234 36.7605H1.5625V44.9183C1.5625 45.8262 2.29844 46.5637 3.20781 46.5637H8.53594C9.12958 48.4663 9.89524 50.3109 10.8234 52.0746L7.05156 55.8465C6.40938 56.4887 6.40938 57.5293 7.05156 58.1715L18.5891 69.709C19.2313 70.3512 20.2719 70.3512 20.9141 69.709L24.6859 65.9371C26.4375 66.8574 28.2797 67.6277 30.1969 68.2246V73.5527C30.1969 74.4621 30.9344 75.198 31.8422 75.198H48.1578C49.0656 75.198 49.8031 74.4621 49.8031 73.5527V68.2246C51.7057 67.631 53.5503 66.8653 55.3141 65.9371L59.0859 69.709C59.7281 70.3512 60.7687 70.3512 61.4109 69.709L72.9484 58.1715C73.5906 57.5293 73.5906 56.4887 72.9484 55.8465L69.1766 52.0746C70.0969 50.323 70.8672 48.4808 71.4641 46.5637H76.7922C77.7016 46.5637 78.4375 45.8262 78.4375 44.9183V36.7605H62.5766" stroke="#333333" stroke-width="3" stroke-miterlimit="10" stroke-linecap="round" stroke-linejoin="round"/>
</svg>
