<svg width="32" height="32" viewBox="0 0 32 32" fill="none" xmlns="http://www.w3.org/2000/svg">
<path fill-rule="evenodd" clip-rule="evenodd" d="M20.045 11.9556C19.245 11.1557 18.2258 10.6109 17.1163 10.3902C16.0067 10.1695 14.8566 10.2828 13.8114 10.7157C12.7662 11.1487 11.8729 11.8818 11.2444 12.8224C10.6159 13.7631 10.2804 14.869 10.2804 16.0003C10.2804 17.1316 10.6159 18.2375 11.2444 19.1782C11.8729 20.1188 12.7662 20.8519 13.8114 21.2849C14.8566 21.7178 16.0067 21.8311 17.1163 21.6104C18.2258 21.3897 19.245 20.8449 20.045 20.045C21.1176 18.9722 21.7201 17.5173 21.7201 16.0003C21.7201 14.4833 21.1176 13.0284 20.045 11.9556ZM16 9.04436C17.3758 9.04436 18.7208 9.45235 19.8648 10.2167C21.0087 10.9811 21.9003 12.0676 22.4268 13.3387C22.9533 14.6098 23.091 16.0085 22.8225 17.3579C22.5541 18.7073 21.8915 19.9468 20.9186 20.9196C19.9457 21.8925 18.7061 22.5549 17.3567 22.8233C16.0073 23.0916 14.6086 22.9538 13.3375 22.4272C12.0665 21.9006 10.9801 21.0089 10.2158 19.8648C9.4515 18.7208 9.04363 17.3758 9.04375 16C9.04392 14.1552 9.77688 12.386 11.0814 11.0816C12.3859 9.77716 14.1552 9.04436 16 9.04436ZM9.73625 3.45249C11.8059 2.87789 13.8075 2.08162 15.7063 1.07749C15.7954 1.0292 15.895 1.0036 15.9964 1.00294C16.0978 1.00229 16.1978 1.0266 16.2875 1.07374C18.188 2.08017 20.1917 2.87814 22.2638 3.45374C24.3568 4.03187 26.5045 4.39026 28.6719 4.52311C28.7532 4.5227 28.8337 4.53838 28.909 4.56924C28.9842 4.6001 29.0525 4.64554 29.1101 4.70294C29.1677 4.76034 29.2133 4.82856 29.2444 4.90367C29.2755 4.97879 29.2914 5.05931 29.2913 5.14061V12.8019C29.2456 17.5056 28.1431 21.3125 25.9625 24.3175C23.7819 27.3225 20.5331 29.5094 16.1981 30.9662C16.0712 31.0091 15.9338 31.0091 15.8069 30.9662C11.4719 29.5094 8.225 27.3244 6.0425 24.3175C3.86813 21.325 2.76625 17.5369 2.71188 12.8606C2.71064 12.8398 2.71064 12.8189 2.71188 12.7981V5.14061C2.71192 4.98341 2.77197 4.83216 2.87976 4.71775C2.98755 4.60333 3.13496 4.53438 3.29188 4.52499C5.47157 4.3936 7.6315 4.03414 9.73625 3.45249ZM16 2.31249C19.7719 4.25811 23.8325 5.37936 28.0556 5.71374V12.7975C28.0113 17.23 26.9856 20.7975 24.9581 23.5931C22.9631 26.3431 19.9831 28.3594 15.9975 29.7312C12.0119 28.3594 9.03188 26.3419 7.03688 23.5931C5.01875 20.8087 3.99375 17.255 3.9425 12.8437V5.71499C8.1675 5.38061 12.2281 4.25936 16 2.31249ZM18.2156 13.625C18.327 13.5053 18.4814 13.4348 18.6448 13.4289C18.8082 13.4231 18.9672 13.4823 19.0869 13.5937C19.2066 13.7051 19.2771 13.8595 19.2829 14.0229C19.2888 14.1863 19.2295 14.3453 19.1181 14.465L15.4763 18.3819C15.4157 18.4475 15.3417 18.4991 15.2592 18.5333C15.1768 18.5674 15.0879 18.5832 14.9987 18.5796C14.9095 18.576 14.8222 18.553 14.7428 18.5123C14.6633 18.4716 14.5937 18.414 14.5388 18.3437L12.875 16.5C12.8208 16.4401 12.7789 16.3701 12.7518 16.294C12.7246 16.2179 12.7127 16.1372 12.7167 16.0565C12.7208 15.9758 12.7407 15.8966 12.7753 15.8236C12.8099 15.7506 12.8585 15.6851 12.9184 15.6309C12.9784 15.5767 13.0484 15.5348 13.1245 15.5077C13.2006 15.4805 13.2813 15.4686 13.362 15.4727C13.4427 15.4767 13.5218 15.4966 13.5948 15.5312C13.6678 15.5658 13.7333 15.6144 13.7875 15.6744L15.0281 17.045L18.2156 13.625Z" fill="#333333"/>
</svg>
