<svg width="24" height="24" viewBox="0 0 24 24" fill="none" xmlns="http://www.w3.org/2000/svg">
<path fill-rule="evenodd" clip-rule="evenodd" d="M12.0046 1.50623C14.7565 1.55596 17.3789 2.68406 19.3075 4.64778C21.236 6.6115 22.3166 9.25386 22.3166 12.0062C22.3166 14.7586 21.236 17.4009 19.3075 19.3647C17.3789 21.3284 14.7565 22.4565 12.0046 22.5062C9.25268 22.4565 6.63028 21.3284 4.70172 19.3647C2.77317 17.4009 1.69263 14.7586 1.69263 12.0062C1.69263 9.25386 2.77317 6.6115 4.70172 4.64778C6.63028 2.68406 9.25268 1.55596 12.0046 1.50623ZM9.82403 15.4171L7.2526 12.8434C7.04211 12.6322 6.92393 12.3461 6.92393 12.0479C6.92393 11.7498 7.04211 11.4637 7.2526 11.2525C7.46415 11.0422 7.75032 10.9242 8.0486 10.9242C8.34688 10.9242 8.63304 11.0422 8.8446 11.2525L10.656 13.0662L15.1646 8.55765C15.3758 8.34717 15.6618 8.22898 15.96 8.22898C16.2582 8.22898 16.5442 8.34717 16.7555 8.55765C16.9657 8.76902 17.0837 9.05499 17.0837 9.35308C17.0837 9.65118 16.9657 9.93715 16.7555 10.1485L11.4503 15.4537C11.3426 15.5608 11.2144 15.6451 11.0733 15.7015C10.9323 15.7578 10.7813 15.7851 10.6294 15.7817C10.4775 15.7783 10.3279 15.7442 10.1895 15.6816C10.0511 15.6189 9.92679 15.529 9.82403 15.4171Z" fill="#22C55E"/>
</svg>
