<svg width="44" height="44" viewBox="0 0 44 44" fill="none" xmlns="http://www.w3.org/2000/svg">
<path d="M0 21.995C0 9.84752 9.84752 0 21.995 0C34.1426 0 43.9901 9.84752 43.9901 21.995C43.9901 34.1426 34.1426 43.9901 21.995 43.9901C9.84752 43.9901 0 34.1426 0 21.995Z" fill="#0D3B66"/>
<g clip-path="url(#clip0_131_1663)">
<path d="M24.0973 30.0613C24.129 30.1401 24.184 30.2074 24.2549 30.2541C24.3259 30.3008 24.4095 30.3247 24.4944 30.3225C24.5794 30.3203 24.6616 30.2922 24.7301 30.2419C24.7986 30.1917 24.8501 30.1217 24.8776 30.0413L30.2907 14.2184C30.3174 14.1446 30.3225 14.0648 30.3054 13.9882C30.2883 13.9116 30.2498 13.8415 30.1943 13.786C30.1388 13.7305 30.0687 13.692 29.9921 13.6749C29.9156 13.6579 29.8357 13.663 29.7619 13.6896L13.939 19.1027C13.8587 19.1303 13.7887 19.1817 13.7384 19.2502C13.6881 19.3187 13.66 19.401 13.6579 19.4859C13.6557 19.5708 13.6795 19.6544 13.7262 19.7254C13.7729 19.7964 13.8402 19.8514 13.919 19.883L20.523 22.5313C20.7318 22.6148 20.9215 22.7398 21.0806 22.8987C21.2398 23.0576 21.3651 23.247 21.4491 23.4557L24.0973 30.0613Z" stroke="white" stroke-width="1.66557" stroke-linecap="round" stroke-linejoin="round"/>
<path d="M30.1917 13.79L21.0811 22.8999" stroke="white" stroke-width="1.66557" stroke-linecap="round" stroke-linejoin="round"/>
</g>
<defs>
<clipPath id="clip0_131_1663">
<rect width="19.9868" height="19.9868" fill="white" transform="translate(11.9922 12.002)"/>
</clipPath>
</defs>
</svg>
