<svg width="32" height="32" viewBox="0 0 32 32" fill="none" xmlns="http://www.w3.org/2000/svg">
<rect width="32" height="32" rx="16" fill="none"/>
<path d="M11.0909 22C10.4091 22 9.82955 21.75 9.35227 21.25C8.875 20.75 8.63636 20.1429 8.63636 19.4286H7V11.7143C7 11.2429 7.16023 10.8393 7.48068 10.5036C7.80114 10.1679 8.18636 10 8.63636 10H20.0909L25 15.1429V19.4286H23.3636C23.3636 20.1429 23.125 20.75 22.6477 21.25C22.1705 21.75 21.5909 22 20.9091 22C20.2273 22 19.6477 21.75 19.1705 21.25C18.6932 20.75 18.4545 20.1429 18.4545 19.4286H13.5455C13.5455 20.1429 13.3068 20.75 12.8295 21.25C12.3523 21.75 11.7727 22 11.0909 22ZM18.4545 14.2857H21.7273L19.2727 11.7143H18.4545V14.2857ZM13.5455 14.2857H16.8182V11.7143H13.5455V14.2857ZM8.63636 14.2857H11.9091V11.7143H8.63636V14.2857ZM11.0909 20.5C11.3773 20.5 11.6193 20.3964 11.817 20.1893C12.0148 19.9821 12.1136 19.7286 12.1136 19.4286C12.1136 19.1286 12.0148 18.875 11.817 18.6679C11.6193 18.4607 11.3773 18.3571 11.0909 18.3571C10.8045 18.3571 10.5625 18.4607 10.3648 18.6679C10.167 18.875 10.0682 19.1286 10.0682 19.4286C10.0682 19.7286 10.167 19.9821 10.3648 20.1893C10.5625 20.3964 10.8045 20.5 11.0909 20.5ZM20.9091 20.5C21.1955 20.5 21.4375 20.3964 21.6352 20.1893C21.833 19.9821 21.9318 19.7286 21.9318 19.4286C21.9318 19.1286 21.833 18.875 21.6352 18.6679C21.4375 18.4607 21.1955 18.3571 20.9091 18.3571C20.6227 18.3571 20.3807 18.4607 20.183 18.6679C19.9852 18.875 19.8864 19.1286 19.8864 19.4286C19.8864 19.7286 19.9852 19.9821 20.183 20.1893C20.3807 20.3964 20.6227 20.5 20.9091 20.5ZM8.63636 17.7143H9.29091C9.52273 17.4571 9.78864 17.25 10.0886 17.0929C10.3886 16.9357 10.7227 16.8571 11.0909 16.8571C11.4591 16.8571 11.7932 16.9357 12.0932 17.0929C12.3932 17.25 12.6591 17.4571 12.8909 17.7143H19.1091C19.3409 17.4571 19.6068 17.25 19.9068 17.0929C20.2068 16.9357 20.5409 16.8571 20.9091 16.8571C21.2773 16.8571 21.6114 16.9357 21.9114 17.0929C22.2114 17.25 22.4773 17.4571 22.7091 17.7143H23.3636V16H8.63636V17.7143ZM23.3636 16H22.7091C22.4773 16 22.2114 16 21.9114 16C21.6114 16 21.2773 16 20.9091 16C20.5409 16 20.2068 16 19.9068 16C19.6068 16 19.3409 16 19.1091 16H12.8909C12.6591 16 12.3932 16 12.0932 16C11.7932 16 11.4591 16 11.0909 16C10.7227 16 10.3886 16 10.0886 16C9.78864 16 9.52273 16 9.29091 16H8.63636H23.3636Z" fill="#0D3B66"/>
</svg>
