<svg width="100" height="100" viewBox="0 0 100 100" fill="none" xmlns="http://www.w3.org/2000/svg">
<path d="M100 50C100 77.6142 77.6142 100 50 100C22.3858 100 0 77.6142 0 50C0 22.3858 22.3858 0 50 0C77.6142 0 100 22.3858 100 50ZM4 50C4 75.4051 24.5949 96 50 96C75.4051 96 96 75.4051 96 50C96 24.5949 75.4051 4 50 4C24.5949 4 4 24.5949 4 50Z" fill="#22C55E"/>
<path d="M38.2625 49.1161C37.5694 49.1181 36.891 49.3162 36.3058 49.6876C35.7206 50.059 35.2525 50.5885 34.9557 51.2149C34.6589 51.8412 34.5454 52.5388 34.6285 53.227C34.7116 53.9151 34.9879 54.5656 35.4253 55.1033L44.7495 66.5254C45.0819 66.9383 45.5081 67.2658 45.9925 67.4808C46.477 67.6959 47.0058 67.7922 47.5349 67.7618C48.6667 67.7011 49.6885 67.0956 50.3399 66.1002L69.7087 34.9068C69.7119 34.9016 69.7152 34.8965 69.7186 34.8914C69.9003 34.6123 69.8414 34.0593 69.4663 33.712C69.3632 33.6166 69.2417 33.5433 69.1093 33.4966C68.9768 33.4499 68.8362 33.4309 68.6962 33.4406C68.5561 33.4503 68.4194 33.4886 68.2947 33.5531C68.17 33.6176 68.0598 33.707 67.9709 33.8157C67.9639 33.8242 67.9568 33.8326 67.9494 33.8409L48.4158 55.9111C48.3414 55.995 48.2511 56.0634 48.1502 56.1122C48.0492 56.161 47.9395 56.1893 47.8275 56.1953C47.7155 56.2014 47.6035 56.1851 47.4978 56.1475C47.3922 56.1099 47.295 56.0516 47.2121 55.9762L40.7292 50.0767C40.0559 49.4595 39.1759 49.1168 38.2625 49.1161Z" fill="#22C55E"/>
</svg>
