<svg width="48" height="48" viewBox="0 0 48 48" fill="none" xmlns="http://www.w3.org/2000/svg">
<path d="M37.3316 25.334C36.978 25.334 36.6389 25.4745 36.3888 25.7245C36.1388 25.9746 35.9983 26.3137 35.9983 26.6673V32.2846C35.9973 33.2699 35.6054 34.2144 34.9087 34.9111C34.2121 35.6077 33.2675 35.9996 32.2823 36.0007H15.7143C14.7291 35.9996 13.7845 35.6077 13.0879 34.9111C12.3912 34.2144 11.9994 33.2699 11.9983 32.2846V26.6673C11.9983 26.3137 11.8578 25.9746 11.6078 25.7245C11.3577 25.4745 11.0186 25.334 10.665 25.334C10.3114 25.334 9.97221 25.4745 9.72216 25.7245C9.47212 25.9746 9.33164 26.3137 9.33164 26.6673V32.2846C9.33341 33.9769 10.0064 35.5993 11.203 36.7959C12.3996 37.9925 14.0221 38.6656 15.7143 38.6673H32.2823C33.9746 38.6656 35.597 37.9925 36.7936 36.7959C37.9902 35.5993 38.6632 33.9769 38.665 32.2846V26.6673C38.665 26.3137 38.5245 25.9746 38.2745 25.7245C38.0244 25.4745 37.6853 25.334 37.3316 25.334Z" fill="#0D3B66"/>
<path d="M16.9415 19.6097L22.6655 13.8857V30.667C22.6655 31.0207 22.806 31.3598 23.056 31.6098C23.3061 31.8599 23.6452 32.0004 23.9989 32.0004C24.3525 32.0004 24.6916 31.8599 24.9417 31.6098C25.1917 31.3598 25.3322 31.0207 25.3322 30.667V13.8857L31.0562 19.6097C31.3077 19.8526 31.6445 19.987 31.9941 19.9839C32.3436 19.9809 32.6781 19.8407 32.9253 19.5935C33.1725 19.3462 33.3127 19.0118 33.3158 18.6622C33.3188 18.3126 33.1844 17.9758 32.9415 17.7244L24.9415 9.72437C24.6915 9.4744 24.3524 9.33398 23.9989 9.33398C23.6453 9.33398 23.3062 9.4744 23.0562 9.72437L15.0562 17.7244C14.8133 17.9758 14.6789 18.3126 14.682 18.6622C14.685 19.0118 14.8252 19.3462 15.0724 19.5935C15.3196 19.8407 15.6541 19.9809 16.0036 19.9839C16.3532 19.987 16.69 19.8526 16.9415 19.6097Z" fill="#0D3B66"/>
</svg>
