<svg width="80" height="80" viewBox="0 0 80 80" fill="none" xmlns="http://www.w3.org/2000/svg">
<g clip-path="url(#clip0_70_1279)">
<path d="M5.33337 64H40V66.6667H5.33337V64ZM22.6667 76C20.4577 76 18.6667 74.209 18.6667 72C18.6667 69.791 20.4577 68 22.6667 68C24.8757 68 26.6667 69.791 26.6667 72C26.6667 74.209 24.8757 76 22.6667 76ZM22.6667 70.6667C22.3131 70.6667 21.9739 70.8071 21.7239 71.0572C21.4738 71.3072 21.3334 71.6464 21.3334 72C21.3334 72.3536 21.4738 72.6928 21.7239 72.9428C21.9739 73.1929 22.3131 73.3333 22.6667 73.3333C23.0203 73.3333 23.3595 73.1929 23.6095 72.9428C23.8596 72.6928 24 72.3536 24 72C24 71.6464 23.8596 71.3072 23.6095 71.0572C23.3595 70.8071 23.0203 70.6667 22.6667 70.6667Z" fill="#0D3B66"/>
<path d="M42.6667 73.3333C42.6667 75.5423 40.8757 77.3333 38.6667 77.3333H6.66667C4.45767 77.3333 2.66667 75.5423 2.66667 73.3333V6.66667C2.66667 4.45767 4.45767 2.66667 6.66667 2.66667H9.33333V4C9.33333 6.209 11.1243 8 13.3333 8H32C34.209 8 36 6.209 36 4V2.66667H38.6667C40.8757 2.66667 42.6667 4.45767 42.6667 6.66667V16H45.3333V6.66667C45.3288 2.98633 42.347 0.0045 38.6667 0H6.66667C2.98633 0.0045 0.0045 2.98633 0 6.66667V73.3333C0.0045 77.0137 2.98633 79.9955 6.66667 80H38.6667C42.347 79.9955 45.3288 77.0137 45.3333 73.3333V42.6667H42.6667V73.3333ZM12 2.66667H33.3333V4C33.3333 4.35362 33.1929 4.69276 32.9428 4.94281C32.6928 5.19286 32.3536 5.33333 32 5.33333H13.3333C12.9797 5.33333 12.6406 5.19286 12.3905 4.94281C12.1405 4.69276 12 4.35362 12 4V2.66667Z" fill="#0D3B66"/>
<path d="M18.6666 18.6666V40H80V18.6666H18.6666ZM77.3333 37.3333H21.3333V21.3333H77.3333V37.3333Z" fill="#0D3B66"/>
<path d="M25.3817 33.155L28 31.6425V34.6667H30.6667V31.6425L33.285 33.155L34.6183 30.845L32 29.3333L34.6183 27.8217L33.285 25.5117L30.6667 27.0242V24H28V27.0242L25.3817 25.5117L24.0483 27.8217L26.6667 29.3333L24.0483 30.845L25.3817 33.155ZM38.715 33.155L41.3333 31.6425V34.6667H44V31.6425L46.6183 33.155L47.9517 30.845L45.3333 29.3333L47.9517 27.8217L46.6183 25.5117L44 27.0242V24H41.3333V27.0242L38.715 25.5117L37.3817 27.8217L40 29.3333L37.3817 30.845L38.715 33.155ZM52.0483 33.155L54.6667 31.6425V34.6667H57.3333V31.6425L59.9517 33.155L61.285 30.845L58.6667 29.3333L61.285 27.8217L59.9517 25.5117L57.3333 27.0242V24H54.6667V27.0242L52.0483 25.5117L50.715 27.8217L53.3333 29.3333L50.715 30.845L52.0483 33.155ZM65.3817 33.155L68 31.6425V34.6667H70.6667V31.6425L73.285 33.155L74.6183 30.845L72 29.3333L74.6183 27.8217L73.285 25.5117L70.6667 27.0242V24H68V27.0242L65.3817 25.5117L64.0483 27.8217L66.6667 29.3333L64.0483 30.845L65.3817 33.155Z" fill="#0D3B66"/>
</g>
<defs>
<clipPath id="clip0_70_1279">
<rect width="80" height="80" fill="white"/>
</clipPath>
</defs>
</svg>
