<svg width="32" height="32" viewBox="0 0 32 32" fill="none" xmlns="http://www.w3.org/2000/svg">
<g clip-path="url(#clip0_47_3962)">
<g clip-path="url(#clip1_47_3962)">
<path d="M8.70889 29.7884C8.70883 29.7884 8.70883 29.7884 8.70889 29.7884V29.7884ZM31.8893 21.3876C31.7484 21.7096 31.4913 21.9572 31.1655 22.0847L29.3316 22.8022C29.1797 22.8619 29.0179 22.8926 28.8546 22.8927C28.6755 22.8927 28.4965 22.8556 28.327 22.7814C28.0807 22.6743 27.8734 22.4937 27.7336 22.2643L25.6477 23.1537C25.714 23.5583 25.6518 23.9848 25.4419 24.3665C25.1946 24.8161 24.7853 25.1413 24.2895 25.2821C24.2843 25.2836 24.2791 25.2846 24.274 25.2859C24.4605 25.7879 24.4381 26.3629 24.1629 26.8633C23.8167 27.4926 23.1641 27.8489 22.492 27.8489C22.3516 27.8487 22.2117 27.8328 22.0749 27.8016C22.0921 28.1491 22.0124 28.4946 21.8446 28.7994C21.4985 29.4288 20.8459 29.7851 20.1737 29.7851C20.0917 29.7849 20.0097 29.7795 19.9284 29.7688C19.9551 30.1332 19.8755 30.4976 19.6993 30.8177C19.3531 31.447 18.7006 31.8034 18.0284 31.8034C17.7087 31.8034 17.3943 31.7225 17.1144 31.5681L16.4562 31.2062C16.2139 31.5451 15.8681 31.7941 15.461 31.9175C15.2804 31.9725 15.0927 32.0005 14.904 32.0007C14.5926 32.0005 14.2861 31.9233 14.0118 31.7759C13.5748 31.5422 13.2663 31.1611 13.1143 30.7266C13.0332 30.764 12.9496 30.7959 12.8641 30.8219C12.6836 30.8768 12.4959 30.9049 12.3071 30.9051C11.9987 30.9051 11.6937 30.8294 11.415 30.6803C11.0195 30.4688 10.7296 30.1365 10.5652 29.7532C10.4368 29.8276 10.3002 29.8869 10.1581 29.93C9.97758 29.985 9.78989 30.013 9.60114 30.0132C9.28978 30.013 8.9833 29.9358 8.70902 29.7884C8.26208 29.5494 7.93452 29.1493 7.78677 28.6616C7.69602 28.3622 7.68027 28.0528 7.7367 27.7549C7.69908 27.7572 7.66152 27.7591 7.62402 27.7591C7.31266 27.759 7.00617 27.6818 6.73189 27.5344C6.28495 27.2954 5.95739 26.8952 5.80964 26.4076C5.66189 25.92 5.71214 25.4053 5.9512 24.9584L6.43152 24.0603C6.3072 23.7832 6.25158 23.4794 6.19745 23.183C6.09677 22.631 6.02395 22.3611 5.79202 22.271C5.62064 22.2045 5.10358 21.9773 4.13608 21.5432C3.88495 21.8622 3.50052 22.0446 3.10227 22.0446C2.91983 22.0446 2.7347 22.0064 2.55827 21.9258L0.767267 21.1073C0.108579 20.8062 -0.182421 20.0254 0.118579 19.3667L3.79945 11.3126C4.10045 10.6539 4.88139 10.3629 5.54002 10.664L7.33102 11.4824C7.9897 11.7836 8.2807 12.5644 7.9797 13.2231L7.86827 13.4669L9.48952 14.2148C9.50164 14.2204 9.51358 14.2266 9.52527 14.2331C10.1703 14.5961 10.8395 14.4381 11.6864 14.2379C12.7905 13.9771 14.1496 13.6567 15.7412 14.5962C17.9301 13.2414 19.6109 13.9268 20.8526 14.4342C21.7553 14.8033 22.3371 15.0147 22.8985 14.7227L24.4375 13.8989L24.4032 13.8112C24.1393 13.1368 24.4733 12.3734 25.1477 12.1094L26.9816 11.3919C27.6561 11.1281 28.4193 11.4621 28.6833 12.1364L28.6834 12.1364L31.9101 20.3829C32.0375 20.7088 32.0301 21.0656 31.8893 21.3876ZM3.3892 20.8615L7.07002 12.8074C7.14064 12.6529 7.06977 12.4626 6.91514 12.392L5.1242 11.5736C5.08681 11.5565 5.04639 11.547 5.00529 11.5457C4.9642 11.5443 4.92325 11.5512 4.88483 11.5658C4.84621 11.5799 4.81077 11.6015 4.78057 11.6294C4.75037 11.6573 4.72601 11.6909 4.70889 11.7283L1.02795 19.7824C0.957329 19.9369 1.0282 20.1271 1.18277 20.1978L2.97377 21.0163C3.12839 21.0869 3.31858 21.0159 3.3892 20.8615ZM7.89089 26.7189C8.12183 26.6489 8.31108 26.4948 8.42427 26.2848L9.31702 24.616C9.54752 24.1851 9.37827 23.6234 8.9472 23.3939C8.5172 23.1649 7.95639 23.3292 7.72395 23.7639L6.83283 25.43C6.60183 25.8619 6.7722 26.4221 7.20333 26.6526C7.41483 26.7657 7.65908 26.7892 7.89089 26.7189ZM10.403 28.5362L11.6105 26.2786C11.8406 25.8484 11.6713 25.2858 11.2407 25.0564C10.8136 24.829 10.253 24.9905 10.0193 25.4233L8.80995 27.684C8.69683 27.8954 8.67327 28.1396 8.74358 28.3716C8.81389 28.6035 8.96902 28.7935 9.18045 28.9066C9.39189 29.0197 9.63595 29.0432 9.86795 28.973C10.1 28.9028 10.29 28.7476 10.403 28.5362ZM13.109 29.4281L14.0854 27.6023C14.3159 27.1712 14.1468 26.6097 13.7156 26.3801C13.2826 26.1495 12.7235 26.3178 12.4923 26.7501L11.516 28.5759C11.281 29.0151 11.4473 29.5636 11.8865 29.7985C12.098 29.9116 12.3421 29.9352 12.5741 29.8648C12.806 29.7946 12.996 29.6394 13.109 29.4281ZM15.7059 30.5237L16.5603 28.926C16.7886 28.4991 16.6189 27.9319 16.1906 27.7039C15.7576 27.4733 15.1985 27.6414 14.9673 28.0739L14.1127 29.6717C13.878 30.1109 14.0443 30.6593 14.4834 30.8941C14.6949 31.0072 14.9391 31.0309 15.171 30.9604C15.4028 30.8902 15.5928 30.7351 15.7059 30.5237ZM18.5357 29.1518L17.672 28.6768C17.6676 28.6744 17.6636 28.6714 17.6592 28.6689C17.637 28.924 17.5631 29.1719 17.4421 29.3976L16.9423 30.3324L17.5962 30.692C18.0328 30.9321 18.583 30.7723 18.823 30.3359C19.0491 29.9248 18.9185 29.4112 18.5357 29.1518ZM24.2029 22.6541L19.3493 19.8877C18.5196 19.4146 17.4872 19.8327 16.2921 20.3166C14.49 21.0461 12.2471 21.9541 10.35 19.3399C10.3088 19.2831 10.28 19.2183 10.2655 19.1496C10.251 19.0809 10.2511 19.01 10.2658 18.9414C10.2806 18.8727 10.3096 18.808 10.351 18.7513C10.3924 18.6946 10.4452 18.6473 10.5061 18.6124C11.9466 17.7873 13.1572 16.8836 14.1043 15.9265C14.338 15.6899 14.5829 15.4647 14.8381 15.2516C13.7714 14.7732 12.8658 14.9868 11.9162 15.2112C10.9898 15.43 10.0321 15.6562 9.05308 15.1148L7.45245 14.3764L4.58577 20.6491C5.15752 20.9056 5.9602 21.2637 6.1537 21.3388C6.8712 21.6174 7.04952 22.3074 7.1552 22.8639C7.37708 22.6356 7.65464 22.4653 7.96889 22.3701C8.45664 22.2223 8.9712 22.2726 9.41814 22.5116C9.86377 22.7489 10.1913 23.1484 10.3395 23.636C10.375 23.7528 10.3994 23.8727 10.4123 23.9941C10.8543 23.8976 11.3102 23.9595 11.7116 24.1742C12.1573 24.4115 12.4848 24.8109 12.633 25.2986C12.6415 25.3266 12.6492 25.3548 12.6564 25.3829C12.6831 25.3736 12.71 25.3646 12.7373 25.3563C13.225 25.2085 13.7396 25.2588 14.1866 25.4978C14.6322 25.7352 14.9596 26.1346 15.1079 26.6222C15.1165 26.6502 15.1241 26.6784 15.1313 26.7066C15.158 26.6973 15.185 26.6882 15.2122 26.6799C15.6996 26.5322 16.2144 26.5824 16.6615 26.8215C16.8762 26.9356 17.0667 27.0903 17.2226 27.2769L19.7415 28.6735C20.1778 28.9134 20.7283 28.7539 20.9684 28.3174C21.2061 27.8853 21.0445 27.3338 20.608 27.0882L17.6121 25.402C17.5549 25.3698 17.5045 25.3266 17.464 25.275C17.4235 25.2233 17.3935 25.1642 17.3758 25.101C17.3581 25.0377 17.353 24.9716 17.3609 24.9064C17.3688 24.8412 17.3894 24.7782 17.4216 24.721C17.4538 24.6638 17.497 24.6135 17.5486 24.5729C17.6003 24.5324 17.6594 24.5024 17.7226 24.4847C17.7859 24.467 17.852 24.462 17.9172 24.4698C17.9823 24.4777 18.0454 24.4983 18.1026 24.5305L22.0598 26.7374C22.496 26.9773 23.0465 26.8177 23.2866 26.3813C23.5227 25.9521 23.3645 25.4055 22.9348 25.1574C22.907 25.1435 19.3726 23.1488 19.3726 23.1488C19.2571 23.0836 19.1723 22.9752 19.1368 22.8474C19.1012 22.7197 19.1179 22.583 19.1831 22.4676C19.2154 22.4104 19.2586 22.3601 19.3104 22.3196C19.3621 22.2792 19.4212 22.2493 19.4845 22.2317C19.5478 22.2141 19.6139 22.2091 19.6791 22.2171C19.7443 22.2251 19.8072 22.2458 19.8644 22.2781L23.3438 24.2434C23.5472 24.3583 23.786 24.3856 24.016 24.3202C24.253 24.2529 24.4481 24.0981 24.5656 23.8846C24.802 23.4549 24.6393 22.9028 24.2029 22.6541ZM27.3495 21.341L24.8045 14.8368L23.365 15.6072C22.3591 16.1304 21.4008 15.7388 20.4741 15.3599C19.2083 14.8426 17.8995 14.3076 16.0078 15.6153C15.6115 15.8892 15.2103 16.2306 14.8151 16.6299C13.9186 17.5357 12.8082 18.3927 11.5088 19.1819C12.8462 20.6325 14.2788 20.0527 15.9168 19.3897C17.2328 18.8569 18.5936 18.3059 19.8446 19.0189L24.6981 21.7853C24.9045 21.9028 25.0873 22.0575 25.2373 22.2416L27.3495 21.341ZM30.9787 20.7473L27.752 12.5009C27.6909 12.3446 27.5021 12.262 27.3459 12.3232L25.5121 13.0407C25.3539 13.1026 25.2725 13.2886 25.3344 13.4469L28.5611 21.6933C28.5762 21.7316 28.5986 21.7665 28.6272 21.796C28.6558 21.8256 28.69 21.8491 28.7278 21.8654C28.7653 21.8821 28.8058 21.8913 28.8469 21.8922C28.888 21.8932 28.9289 21.886 28.9672 21.871L30.801 21.1535C30.8781 21.1233 30.9393 21.0641 30.9731 20.9868C31.0069 20.9095 31.009 20.8244 30.9787 20.7473ZM26.8985 13.1468C26.5149 13.1468 26.202 13.4596 26.202 13.8433C26.202 14.2269 26.5149 14.5398 26.8985 14.5398C27.2821 14.5398 27.5951 14.2269 27.5951 13.8433C27.5951 13.4596 27.2822 13.1468 26.8985 13.1468ZM5.52495 12.4208C5.14083 12.3994 4.81214 12.6934 4.7907 13.0775C4.76927 13.4616 5.06327 13.7903 5.44739 13.8118C5.83152 13.8332 6.1602 13.5392 6.18164 13.1551C6.20308 12.7709 5.90908 12.4422 5.52495 12.4208ZM5.59508 9.13481C5.34814 8.79981 5.27995 8.39644 5.40308 7.999C5.74595 6.89181 6.53864 6.03013 7.54589 5.58569C7.15333 5.18513 6.91064 4.63713 6.91064 4.03331C6.91064 2.80937 7.90645 1.81356 9.13039 1.81356C10.3543 1.81356 11.35 2.80931 11.35 4.03325C11.35 4.63681 11.1076 5.18456 10.7154 5.58506C11.2127 5.80524 11.6579 6.12812 12.0216 6.5325C12.5854 5.81145 13.335 5.25759 14.1898 4.93038C13.5857 4.41663 13.2015 3.65181 13.2015 2.79856C13.2015 1.25544 14.457 0 16.0001 0C17.5432 0 18.7986 1.25544 18.7986 2.79862C18.7986 3.65194 18.4143 4.41675 17.8103 4.9305C18.6651 5.25773 19.4147 5.81162 19.9785 6.53269C20.3423 6.12832 20.7874 5.80545 21.2847 5.58525C20.8925 5.18469 20.65 4.63694 20.65 4.03337C20.65 2.80944 21.6458 1.81369 22.8698 1.81369C24.0937 1.81369 25.0895 2.80944 25.0895 4.03337C25.0895 4.63725 24.8468 5.18525 24.4543 5.58581C25.4615 6.03025 26.2542 6.89188 26.597 7.99913C26.7201 8.39656 26.652 8.79994 26.405 9.13494C26.158 9.46994 25.7928 9.65444 25.3768 9.65444H21.0201V10.0732C21.0201 11.0188 20.2507 11.7881 19.3052 11.7881H12.6949C11.7493 11.7881 10.98 11.0188 10.98 10.0732V9.65431H6.62333C6.20708 9.65425 5.84195 9.46981 5.59508 9.13481ZM22.8693 5.25306H22.8702C23.5425 5.25281 24.0895 4.70575 24.0895 4.03337C24.0895 3.36081 23.5423 2.81369 22.8698 2.81369C22.1972 2.81369 21.65 3.36081 21.65 4.03337C21.65 4.70575 22.197 5.25281 22.8693 5.25306ZM20.5377 7.43C20.7269 7.81875 20.8651 8.2303 20.9489 8.65444H25.3768C25.4723 8.65444 25.5433 8.61856 25.6001 8.54156C25.6568 8.46469 25.6701 8.38625 25.6418 8.29494C25.2637 7.07387 24.15 6.25344 22.8705 6.25313H22.8693C21.9359 6.25325 21.0837 6.68906 20.5377 7.43ZM15.9988 4.59719H16.0013C16.9925 4.5965 17.7987 3.78994 17.7987 2.79862C17.7986 1.80687 16.9918 1 16.0001 1C15.0083 1 14.2015 1.80687 14.2015 2.79862C14.2015 3.78994 15.0076 4.5965 15.9988 4.59719ZM11.98 9.18169V10.0731C11.98 10.4674 12.3007 10.7881 12.6949 10.7881H19.3051C19.6994 10.7881 20.02 10.4673 20.0201 10.0731V9.18169C19.7883 7.13662 18.0652 5.59781 16.0013 5.59719H16L15.9987 5.59713C13.9348 5.59781 12.2117 7.13669 11.98 9.18169ZM9.12989 5.25294H9.13077C9.80314 5.25269 10.35 4.70563 10.35 4.03325C10.35 3.36069 9.80289 2.8135 9.13033 2.8135C8.45777 2.8135 7.91058 3.36069 7.91058 4.03325C7.91058 4.70569 8.45752 5.25269 9.12989 5.25294ZM6.39995 8.5415C6.4567 8.61844 6.52764 8.65431 6.62327 8.65431H11.0512C11.135 8.2302 11.2732 7.81868 11.4623 7.42994C10.9163 6.689 10.0641 6.25319 9.13077 6.253H9.12958C7.84995 6.25331 6.73627 7.07375 6.35814 8.29481C6.32995 8.38606 6.3432 8.4645 6.39995 8.5415Z" fill="#333333"/>
</g>
</g>
<defs>
<clipPath id="clip0_47_3962">
<rect width="32" height="32" fill="white"/>
</clipPath>
<clipPath id="clip1_47_3962">
<rect width="32" height="32" fill="white"/>
</clipPath>
</defs>
</svg>
