<svg width="36" height="36" viewBox="0 0 36 36" fill="none" xmlns="http://www.w3.org/2000/svg">
<path d="M0 18C0 8.05888 8.05888 0 18 0C27.9411 0 36 8.05888 36 18C36 27.9411 27.9411 36 18 36C8.05888 36 0 27.9411 0 18Z" fill="#F59E0B"/>
<path d="M16.95 21.55L22.6 15.9L21.175 14.475L16.95 18.7L14.85 16.6L13.425 18.025L16.95 21.55ZM18 28C15.6833 27.4167 13.7708 26.0875 12.2625 24.0125C10.7542 21.9375 10 19.6333 10 17.1V11L18 8L26 11V17.1C26 19.6333 25.2458 21.9375 23.7375 24.0125C22.2292 26.0875 20.3167 27.4167 18 28Z" fill="white"/>
</svg>
