<svg width="40" height="40" viewBox="0 0 40 40" fill="none" xmlns="http://www.w3.org/2000/svg">
<path d="M30.9634 21.4666L29.2934 11.9956C29.0664 10.7088 27.8348 9.84642 26.5482 10.0734L12.2251 12.599C10.9383 12.8258 10.076 14.0573 10.3029 15.3441L10.4256 16.0401C9.58752 16.4057 9 17.2419 9 18.2131V27.5936C9 28.9003 10.0631 29.9633 11.3697 29.9633H25.588C26.8946 29.9633 27.9577 28.9003 27.9577 27.5936V24.4028L29.0411 24.2117C29.6645 24.1018 30.2077 23.7558 30.5708 23.2372C30.9339 22.7187 31.0733 22.0899 30.9634 21.4666ZM29.512 22.4959C29.347 22.7315 29.1 22.8888 28.8167 22.9388L27.9577 23.0903V18.2131C27.9577 16.9064 26.8946 15.8433 25.588 15.8433H11.7035L11.5758 15.1196C11.5259 14.8363 11.5893 14.5505 11.7543 14.3148C11.9193 14.0791 12.1663 13.9218 12.4496 13.8718L26.7726 11.3462C26.8346 11.3353 26.8974 11.3298 26.9602 11.3298C27.4728 11.3298 27.9285 11.6981 28.0205 12.22L29.6905 21.691C29.7404 21.9743 29.677 22.2602 29.512 22.4959ZM25.588 28.6708H11.3697C10.7758 28.6708 10.2926 28.1876 10.2926 27.5936V22.9999H26.6651V27.5936C26.6651 28.1876 26.1819 28.6708 25.588 28.6708ZM11.3697 17.136H25.588C26.1819 17.136 26.6651 17.6192 26.6651 18.2131V18.7754H10.2926V18.2131C10.2926 17.6192 10.7758 17.136 11.3697 17.136ZM26.6651 20.0679V21.7073H10.2926V20.0679H26.6651Z" fill="#333333"/>
<path d="M15.2194 26.0752H12.2874C11.9305 26.0752 11.6411 26.3646 11.6411 26.7215C11.6411 27.0784 11.9305 27.3678 12.2874 27.3678H15.2194C15.5763 27.3678 15.8657 27.0784 15.8657 26.7215C15.8657 26.3646 15.5763 26.0752 15.2194 26.0752Z" fill="#333333"/>
</svg>
